<svg width="54" height="48" viewBox="0 0 54 48" fill="none" xmlns="http://www.w3.org/2000/svg">
<path d="M48.736 3.88235C51.7135 7.76471 53.5 12 53.5 19.0588C53.5 31.4118 46.0562 42.3529 35.6348 48L32.9551 43.4118C42.7809 37.0588 44.8652 28.9412 45.4607 23.6471C43.9719 24.7059 41.8876 25.0588 39.8034 24.7059C34.4438 24 30.2753 19.0588 30.2753 12.3529C30.2753 9.17647 31.4663 6 33.2528 3.52942C35.3371 1.05883 37.7191 0 40.6966 0C43.9719 0 46.9494 1.7647 48.736 3.88235ZM18.9607 3.88235C21.9382 7.76471 23.7247 12 23.7247 19.0588C23.7247 31.4118 16.2809 42.3529 5.85954 48L3.17977 43.4118C13.0056 37.0588 15.0899 28.9412 15.6854 23.6471C14.1966 24.7059 12.1124 25.0588 10.0281 24.7059C4.66853 24 0.5 19.0588 0.5 12.3529C0.5 9.17647 1.69101 6 3.47752 3.52942C5.26404 1.05883 7.94382 0 10.9213 0C14.1966 0 17.1742 1.7647 18.9607 3.88235Z" fill="white"/>
</svg>
