<svg width="154" height="32" viewBox="0 0 154 32" fill="none" xmlns="http://www.w3.org/2000/svg">
<path d="M42.312 28V4.2H57.68V7.702H46.664V14.366H55.572V17.8H46.664V28H42.312ZM60.5966 28V3.52H64.9486V28H60.5966ZM77.2494 28.408C75.5494 28.408 74.0421 28.0453 72.7274 27.32C71.4127 26.5947 70.3814 25.5747 69.6334 24.26C68.8854 22.9453 68.5114 21.4267 68.5114 19.704C68.5114 17.9587 68.8741 16.406 69.5994 15.046C70.3474 13.686 71.3674 12.632 72.6594 11.884C73.9741 11.1133 75.5154 10.728 77.2834 10.728C78.9381 10.728 80.4001 11.0907 81.6694 11.816C82.9387 12.5413 83.9247 13.5387 84.6274 14.808C85.3527 16.0547 85.7154 17.4487 85.7154 18.99C85.7154 19.2393 85.7041 19.5 85.6814 19.772C85.6814 20.044 85.6701 20.3273 85.6474 20.622H72.8294C72.9201 21.9367 73.3734 22.968 74.1894 23.716C75.0281 24.464 76.0367 24.838 77.2154 24.838C78.0994 24.838 78.8361 24.6453 79.4254 24.26C80.0374 23.852 80.4907 23.3307 80.7854 22.696H85.2054C84.8881 23.7613 84.3554 24.736 83.6074 25.62C82.8821 26.4813 81.9754 27.1613 80.8874 27.66C79.8221 28.1587 78.6094 28.408 77.2494 28.408ZM77.2834 14.264C76.2181 14.264 75.2774 14.57 74.4614 15.182C73.6454 15.7713 73.1241 16.678 72.8974 17.902H81.2954C81.2274 16.7913 80.8194 15.9073 80.0714 15.25C79.3234 14.5927 78.3941 14.264 77.2834 14.264ZM97.2977 28.408C95.575 28.408 94.0564 28.034 92.7417 27.286C91.427 26.538 90.3844 25.4953 89.6137 24.158C88.8657 22.8207 88.4917 21.2907 88.4917 19.568C88.4917 17.8453 88.8657 16.3153 89.6137 14.978C90.3844 13.6407 91.427 12.598 92.7417 11.85C94.0564 11.102 95.575 10.728 97.2977 10.728C99.451 10.728 101.264 11.2947 102.738 12.428C104.211 13.5387 105.152 15.08 105.56 17.052H100.97C100.743 16.236 100.29 15.6013 99.6097 15.148C98.9524 14.672 98.1704 14.434 97.2637 14.434C96.0624 14.434 95.0424 14.8873 94.2037 15.794C93.365 16.7007 92.9457 17.9587 92.9457 19.568C92.9457 21.1773 93.365 22.4353 94.2037 23.342C95.0424 24.2487 96.0624 24.702 97.2637 24.702C98.1704 24.702 98.9524 24.4753 99.6097 24.022C100.29 23.5687 100.743 22.9227 100.97 22.084H105.56C105.152 23.988 104.211 25.518 102.738 26.674C101.264 27.83 99.451 28.408 97.2977 28.408ZM116.364 28C114.596 28 113.179 27.5693 112.114 26.708C111.049 25.8467 110.516 24.3167 110.516 22.118V14.774H107.626V11.136H110.516L111.026 6.614H114.868V11.136H119.424V14.774H114.868V22.152C114.868 22.968 115.038 23.5347 115.378 23.852C115.741 24.1467 116.353 24.294 117.214 24.294H119.322V28H116.364ZM122.821 28V11.136H126.697L127.105 14.298C127.717 13.21 128.544 12.3487 129.587 11.714C130.652 11.0567 131.899 10.728 133.327 10.728V15.318H132.103C131.151 15.318 130.301 15.4653 129.553 15.76C128.805 16.0547 128.215 16.5647 127.785 17.29C127.377 18.0153 127.173 19.024 127.173 20.316V28H122.821ZM141.775 28.408C140.324 28.408 139.134 28.1813 138.205 27.728C137.276 27.252 136.584 26.6287 136.131 25.858C135.678 25.0873 135.451 24.2373 135.451 23.308C135.451 21.744 136.063 20.4747 137.287 19.5C138.511 18.5253 140.347 18.038 142.795 18.038H147.079V17.63C147.079 16.474 146.75 15.624 146.093 15.08C145.436 14.536 144.62 14.264 143.645 14.264C142.761 14.264 141.99 14.4793 141.333 14.91C140.676 15.318 140.268 15.93 140.109 16.746H135.859C135.972 15.522 136.38 14.4567 137.083 13.55C137.808 12.6433 138.738 11.952 139.871 11.476C141.004 10.9773 142.274 10.728 143.679 10.728C146.082 10.728 147.974 11.3287 149.357 12.53C150.74 13.7313 151.431 15.4313 151.431 17.63V28H147.725L147.317 25.28C146.818 26.1867 146.116 26.9347 145.209 27.524C144.325 28.1133 143.18 28.408 141.775 28.408ZM142.761 25.008C144.008 25.008 144.971 24.6 145.651 23.784C146.354 22.968 146.796 21.9593 146.977 20.758H143.271C142.115 20.758 141.288 20.9733 140.789 21.404C140.29 21.812 140.041 22.322 140.041 22.934C140.041 23.5913 140.29 24.1013 140.789 24.464C141.288 24.8267 141.945 25.008 142.761 25.008Z" fill="#A3A3A3"/>
<path d="M25.285 4.86866C24.1862 4.65659 23.0714 4.54091 21.9565 4.54091C19.8553 4.54091 17.7573 4.92007 15.7653 5.67516L15.7557 5.67838L15.7171 5.69444C15.444 5.79726 15.1774 5.90972 14.9107 6.02861L14.8368 6.06075H14.8336C14.5637 6.18285 14.2971 6.31136 14.0336 6.44631H14.0304L13.9597 6.48487C13.7027 6.61661 13.4489 6.75801 13.195 6.9026C13.1565 6.9283 13.1179 6.95079 13.0826 6.97328C12.8577 7.10502 12.6392 7.2432 12.424 7.38458C12.4015 7.40064 12.3629 7.41991 12.3147 7.45204C11.3734 8.08182 10.4738 8.81121 9.64484 9.64343V9.64664C9.64163 9.64664 9.64162 9.64664 9.64162 9.64664C9.6352 9.65307 9.62557 9.66271 9.61914 9.67235C9.65127 9.59524 9.68018 9.51811 9.71231 9.44421L9.71552 9.44099L9.73158 9.40244C9.87937 9.07148 10.04 8.74696 10.2135 8.42564C11.2288 6.52665 12.6071 4.85581 14.2649 3.50627L14.2681 3.50306L14.2713 3.49984C14.3613 3.42594 14.4609 3.35203 14.5605 3.27491C14.6344 3.21708 14.7019 3.16245 14.7629 3.11426C14.8175 3.0757 14.8786 3.03394 14.9428 2.98574C15.0553 2.90541 15.1645 2.82507 15.2705 2.75117C15.4344 2.63549 15.6015 2.52625 15.7685 2.42022L15.775 2.417L15.7942 2.40416C15.9709 2.2917 16.1476 2.18244 16.3276 2.07962L16.3308 2.07641C18.2199 0.974288 20.3501 0.254534 22.6248 0.00390625C23.8167 1.49161 24.7003 3.13997 25.285 4.86866Z" fill="#A3A3A3"/>
<path d="M27.4226 23.0869C27.4451 22.711 27.4579 22.3351 27.4579 21.9591C27.4579 19.8609 27.0788 17.7595 26.3238 15.7705L26.3206 15.7609L26.3077 15.7288C26.2113 15.4846 26.1149 15.2404 26.0089 15.0026C25.9575 14.8805 25.8997 14.7648 25.8515 14.6556C25.8065 14.5592 25.7615 14.4531 25.7069 14.3407L25.7037 14.3343L25.6684 14.2636C25.6459 14.2186 25.6234 14.1736 25.6009 14.1318L25.588 14.1029C25.588 14.0997 25.5848 14.0997 25.5848 14.0965C25.5816 14.0933 25.5816 14.0901 25.5816 14.0868L25.572 14.0708L25.5655 14.0579L25.5591 14.0451L25.5527 14.0322C25.5238 13.9744 25.4949 13.9165 25.4627 13.8587L25.4595 13.8555L25.4563 13.8459L25.4531 13.8426C25.4081 13.7559 25.3631 13.6691 25.3117 13.5824L25.3085 13.5759L25.3053 13.5695L25.2957 13.5502L25.2667 13.5053V13.502C25.2089 13.396 25.1479 13.2868 25.0836 13.1743L25.0804 13.1711L25.0772 13.1647L25.074 13.1582L25.0708 13.1518C24.9904 13.0168 24.9069 12.8755 24.8137 12.7309L24.8105 12.7245C24.727 12.5927 24.6402 12.4578 24.5535 12.3228L24.5439 12.3099L24.5342 12.2971C24.4957 12.2393 24.4475 12.1654 24.3929 12.085L24.3639 12.0433L24.3607 12.0368L24.3511 12.0272L24.3479 12.024L24.3382 12.0079L24.3318 12.0015L24.3286 11.9951L24.2836 11.934L24.2804 11.9276C24.2097 11.828 24.139 11.7284 24.0619 11.6255V11.6223H24.0587L24.0491 11.6063C24.0459 11.6063 24.0459 11.6063 24.0459 11.6031C23.9816 11.5131 23.9141 11.4263 23.8435 11.3364C23.7985 11.2785 23.7631 11.2335 23.7406 11.2046C23.6764 11.1179 23.6089 11.0343 23.5382 10.9508L23.535 10.9476L23.5029 10.909C23.4258 10.8126 23.3423 10.713 23.2523 10.6102L23.2491 10.607V10.6038C22.9663 10.276 22.6676 9.95791 22.3559 9.64302C22.3495 9.6398 22.3463 9.63338 22.3398 9.62695C22.4234 9.6623 22.5133 9.69765 22.5969 9.73621C25.6748 11.1179 28.2354 13.4378 29.9222 16.3328L29.9286 16.3425C31.0274 18.2286 31.7471 20.359 31.9977 22.6275C30.5133 23.8195 28.8684 24.6999 27.1398 25.2847C27.1495 25.2269 27.1591 25.1723 27.1655 25.1241C27.188 25.0052 27.2105 24.8863 27.233 24.761V24.7514L27.2362 24.7385C27.2941 24.3754 27.3423 24.0091 27.3776 23.6428C27.3872 23.5368 27.3937 23.4372 27.4001 23.3408C27.4065 23.2604 27.4161 23.1769 27.4226 23.0869Z" fill="#A3A3A3"/>
<path d="M22.3768 22.3359C22.3607 22.3713 22.3479 22.4066 22.3318 22.4388C22.3061 22.503 22.2836 22.5577 22.2644 22.6026C20.8828 25.6776 18.5599 28.2417 15.6684 29.9255C13.7792 31.0276 11.6491 31.7473 9.37439 32.0012C8.18243 30.5135 7.29889 28.8651 6.71094 27.1364C7.80973 27.3485 8.92138 27.461 10.0362 27.461C12.1374 27.461 14.2387 27.085 16.2306 26.3299C16.4876 26.2303 16.7415 26.1243 16.9921 26.015L17.0467 25.9925H17.0531L17.0595 25.9893C17.1945 25.9283 17.3262 25.8704 17.4483 25.8126L17.4579 25.8062L17.4676 25.803L17.4836 25.7933C17.5736 25.7515 17.6603 25.7098 17.7471 25.668L17.7535 25.6648L17.7631 25.6584L17.7696 25.6552L17.7921 25.6423L17.837 25.6198C17.837 25.6198 17.837 25.6198 17.8403 25.6198L17.8756 25.6037C17.9366 25.5748 17.9913 25.5427 18.0427 25.517L18.0684 25.5041L18.0812 25.4977L18.0844 25.4945L18.1037 25.4848L18.1262 25.472H18.1326L18.1358 25.4688H18.1391V25.4656C18.2033 25.4334 18.2611 25.4013 18.319 25.3692C18.3479 25.3563 18.3832 25.337 18.425 25.3113H18.4282L18.4346 25.3081L18.4571 25.2953H18.4603L18.4636 25.2921C18.5599 25.2374 18.6595 25.1796 18.7623 25.1218L18.8073 25.0961L18.8105 25.0928C18.8234 25.0864 18.8684 25.0607 18.9166 25.0286C18.9937 24.9868 19.0676 24.9418 19.1382 24.9C19.1382 24.9 19.1382 24.9001 19.1382 24.8968L19.1897 24.8679L19.1961 24.8615H19.1993C19.225 24.8454 19.2732 24.8165 19.3278 24.7812C19.4403 24.7105 19.5527 24.6366 19.6652 24.5627L19.678 24.553L19.6909 24.5466L19.6973 24.5434C19.8001 24.4727 19.9093 24.3988 20.0218 24.3153L20.0282 24.312L20.0314 24.3088L20.0379 24.3056C20.131 24.2414 20.221 24.1771 20.3045 24.1128H20.3077C20.3109 24.1096 20.3142 24.1096 20.3174 24.1064C20.4716 23.9939 20.6194 23.8815 20.7672 23.7658L20.7961 23.7433L20.8057 23.7337C20.8828 23.6726 20.9632 23.6084 21.0403 23.5473L21.0499 23.5377H21.0531L21.0852 23.512L21.0885 23.5088L21.0949 23.5023L21.1013 23.4959C21.2041 23.4156 21.3005 23.332 21.3905 23.2549V23.2517C21.7214 22.9689 22.0427 22.6733 22.3543 22.3584L22.3768 22.3359Z" fill="#A3A3A3"/>
<path d="M6.36652 27.0693H6.36556L6.36523 27.0684L6.36652 27.0693Z" fill="#A3A3A3"/>
<path d="M9.66174 22.3758C9.59748 22.3501 9.53002 22.3244 9.46576 22.2955L9.46254 22.2923L9.4015 22.2666C6.78945 21.0938 4.55331 19.243 2.90191 16.9392C2.60954 16.5279 2.33002 16.1069 2.0762 15.67L2.06656 15.6539C0.974192 13.771 0.254509 11.6438 0.00390625 9.37534C1.49146 8.18325 3.13965 7.29964 4.86817 6.71484C4.65291 7.81375 4.54045 8.92872 4.54045 10.0437C4.54045 12.1451 4.91958 14.2433 5.6746 16.2355C6.12761 17.4308 6.71877 18.5907 7.45131 19.6832V19.6864C8.08102 20.6311 8.81033 21.5244 9.64246 22.3598C9.64889 22.3662 9.65531 22.3726 9.66174 22.3758Z" fill="#A3A3A3"/>
<path d="M14.6921 1.5584C12.0158 3.36099 9.86958 5.88975 8.53303 8.86515C8.00613 10.0347 7.60773 11.2718 7.34749 12.5635C7.12902 13.6656 7.01013 14.8063 7.01013 15.9759V16.0337C6.97479 15.9438 6.93303 15.857 6.9009 15.7703C6.2005 13.9291 5.85352 11.9884 5.85352 10.0444C5.85352 8.65629 6.03021 7.27141 6.38684 5.92188C6.94266 3.80439 7.94187 1.78974 9.3748 0C11.2672 0.212069 13.0567 0.748681 14.6921 1.5584Z" fill="#A3A3A3"/>
<path d="M31.9996 9.37514C31.7876 11.2677 31.251 13.0574 30.4414 14.6962C28.6326 12.0196 26.1105 9.87319 23.1354 8.53651C22.5827 8.28909 22.0141 8.06417 21.4293 7.87459H21.4261C21.3362 7.84246 21.2494 7.81675 21.1627 7.79105H21.1595L21.1562 7.78783C21.0631 7.75891 20.9699 7.73001 20.8735 7.70431L20.8671 7.70109H20.8607L20.835 7.69466C20.6872 7.64967 20.5426 7.61111 20.398 7.57256C20.2534 7.534 20.096 7.49545 19.9354 7.4601H19.9321L19.9161 7.45367C19.7619 7.41832 19.6044 7.38619 19.447 7.35085H19.4277C19.4277 7.35085 19.4277 7.34763 19.4245 7.34763H19.4117V7.34443C19.3442 7.33479 19.2607 7.31551 19.1611 7.29623L19.1129 7.28658H19.1097L19.0936 7.28338H19.084L19.0679 7.28017H19.0615L19.0518 7.27695C19.0197 7.27374 18.9908 7.2673 18.9844 7.2673L18.9747 7.2641H18.9683C18.8526 7.24161 18.7305 7.22231 18.602 7.20625L18.5795 7.20305C18.4703 7.18377 18.3579 7.1677 18.2486 7.15485C18.1747 7.14521 18.1137 7.13878 18.0751 7.13557C17.9723 7.1195 17.8663 7.10987 17.757 7.10023L17.7538 7.09701L17.7056 7.0938H17.7024C17.5803 7.08094 17.455 7.0681 17.3169 7.06167L17.3073 7.05846C16.8767 7.02632 16.4398 7.01025 15.9996 7.01025H15.9707C16.0575 6.97491 16.141 6.93636 16.2277 6.90101C18.0687 6.20375 20.0157 5.85352 21.9595 5.85352C23.3442 5.85352 24.7289 6.03344 26.0783 6.38689C28.1924 6.94277 30.2101 7.94528 31.9996 9.37514Z" fill="#A3A3A3"/>
<path d="M26.1439 21.9645C26.1439 23.3494 25.9672 24.7343 25.6106 26.0806C25.0548 28.1949 24.0556 30.2095 22.6259 31.9993C20.7367 31.7872 18.9471 31.2506 17.3086 30.4441C19.9817 28.6351 22.1279 26.1095 23.4644 23.1373V23.1341C23.5865 22.8674 23.699 22.5943 23.8082 22.318L23.8114 22.3116C23.866 22.1734 23.9142 22.0384 23.9624 21.9099V21.9067L23.9656 21.8971V21.8938L23.9753 21.8746C24.0074 21.7782 24.0395 21.6882 24.0684 21.5982L24.0716 21.595L24.0749 21.5822L24.0781 21.5757L24.0877 21.5436C24.1166 21.4569 24.1423 21.3765 24.1648 21.3026L24.1809 21.2544L24.1841 21.2512V21.2448C24.2226 21.1291 24.2612 21.007 24.2965 20.8753L24.2998 20.8688V20.8592C24.3447 20.7178 24.3801 20.5796 24.4154 20.4415C24.4218 20.4222 24.4347 20.3772 24.4476 20.3194C24.47 20.2326 24.4925 20.1459 24.5118 20.0688V20.0655C24.5118 20.0655 24.5118 20.0655 24.5118 20.0623L24.5247 20.0077L24.5279 20.0045V20.0013C24.5343 19.9724 24.5472 19.921 24.56 19.8535C24.5889 19.725 24.6178 19.5932 24.6467 19.4615L24.65 19.4454V19.4326L24.6532 19.4229C24.6757 19.2976 24.7046 19.1626 24.7271 19.0213C24.7271 19.0213 24.7271 19.0213 24.7271 19.018C24.7496 18.9024 24.7656 18.7867 24.7817 18.6807C24.7817 18.6807 24.7817 18.6807 24.7817 18.6775C24.8138 18.4879 24.8363 18.3047 24.8588 18.1184L24.8652 18.0798V18.067C24.8781 17.9674 24.8877 17.871 24.9006 17.7681V17.7585L24.9038 17.7103L24.907 17.7007C24.9198 17.5689 24.9295 17.4372 24.9391 17.3151C24.9712 16.8813 24.9873 16.4443 24.9873 16.0009V15.9688C25.0226 16.0587 25.0612 16.1455 25.0965 16.2354C25.7937 18.0766 26.1439 20.0206 26.1439 21.9645Z" fill="#A3A3A3"/>
<path d="M16.0289 24.9925C15.9422 25.0279 15.8522 25.0664 15.7655 25.1018C13.9245 25.799 11.9807 26.1493 10.0369 26.1493C8.65221 26.1493 7.26747 25.9694 5.91807 25.6159C3.80401 25.0568 1.78635 24.0575 0 22.6277C0.208835 20.7351 0.748587 18.9421 1.55823 17.3066C3.36064 19.9832 5.88915 22.1296 8.86104 23.4663C10.0305 23.9965 11.2675 24.3949 12.559 24.6519C13.6707 24.8769 14.8209 24.9958 16 24.9958C16.0096 24.9958 16.0193 24.9925 16.0289 24.9925Z" fill="#A3A3A3"/>
</svg>
