<svg width="192" height="32" viewBox="0 0 192 32" fill="none" xmlns="http://www.w3.org/2000/svg">
<g clip-path="url(#clip0_662_123)">
<path d="M5.80503 17.2535C5.74948 16.3798 5.68003 15.5061 5.63837 14.6185C5.55503 12.7186 6.54114 11.2763 8.26337 10.777C9.90226 10.2917 11.4995 10.9851 12.4439 12.5522C13.1661 13.7587 13.8884 14.9653 14.6106 16.1857C14.8189 16.5324 15.0411 16.8097 15.4856 16.6433C15.9717 16.463 15.9439 16.0747 15.8328 15.6587C14.8606 11.9974 13.8745 8.33623 12.8884 4.67501C12.43 2.94148 13.0134 1.40211 14.4161 0.500669C15.8745 -0.414635 18.4023 -0.165007 19.4995 1.74881C22.9856 7.85084 26.5273 13.9251 30.0411 20.0133C30.4995 20.8177 30.9717 21.6081 31.43 22.4125C32.5134 24.2986 31.9995 26.4204 30.1939 27.4744C28.3884 28.5284 26.2634 27.9459 25.18 26.0737C22.5828 21.5943 19.9995 17.1148 17.4023 12.6215C17.305 12.4412 17.1939 12.2609 17.0828 12.0807C16.8884 11.734 16.6384 11.4566 16.1939 11.623C15.7078 11.8033 15.7495 12.1916 15.8606 12.6077C16.8189 16.1302 17.7495 19.6666 18.7078 23.1891C19.2356 25.1307 18.4717 26.9058 16.7217 27.6824C14.9856 28.4452 13.1106 27.7934 12.0828 26.0599C10.7634 23.8548 9.44392 21.6498 8.13837 19.4447C7.93003 19.098 7.73559 18.7097 7.23559 18.8622C6.7217 19.0287 6.76337 19.4586 6.79114 19.8885C6.91614 21.3446 7.02725 22.7869 7.11059 24.2431C7.19392 25.7686 6.2217 27.2109 4.77725 27.7518C3.31892 28.2926 1.66614 27.8073 0.735588 26.5868C-0.236634 25.3248 -0.250523 23.6052 0.666143 22.3154C1.55503 21.0673 3.20781 20.5403 4.68003 21.0257C5.8467 21.414 6.08281 21.2198 5.98559 19.9856C5.93003 19.098 5.87448 18.1688 5.80503 17.2535Z" fill="#A3A3A3"/>
<g clip-path="url(#clip1_662_123)">
<path d="M5.84028 17.3841C5.78439 16.5037 5.71452 15.6234 5.6726 14.7292C5.58876 12.8148 6.58085 11.3616 8.31352 10.8586C9.96234 10.3696 11.5692 11.0682 12.5194 12.6472C13.246 13.8628 13.9726 15.0785 14.6992 16.3081C14.9088 16.6575 15.1324 16.9369 15.5795 16.7692C16.0686 16.5876 16.0406 16.1963 15.9289 15.7771C14.9507 12.0882 13.9587 8.39935 12.9666 4.71045C12.5054 2.96381 13.0923 1.4128 14.5036 0.504543C15.9708 -0.417682 18.5139 -0.166166 19.6178 1.76212C23.125 7.91029 26.6881 14.0305 30.2233 20.1647C30.6845 20.9751 31.1595 21.7716 31.6207 22.5821C32.7106 24.4824 32.1935 26.6203 30.377 27.6822C28.5605 28.7442 26.4227 28.1573 25.3328 26.271C22.7198 21.7576 20.1208 17.2443 17.5078 12.717C17.41 12.5354 17.2982 12.3537 17.1864 12.1721C16.9908 11.8228 16.7393 11.5433 16.2922 11.711C15.8031 11.8926 15.845 12.2839 15.9568 12.7031C16.9209 16.2522 17.8571 19.8154 18.8213 23.3645C19.3523 25.3208 18.5837 27.1093 16.8231 27.8918C15.0765 28.6604 13.1901 28.0036 12.1561 26.257C10.8287 24.0353 9.50123 21.8135 8.18776 19.5918C7.97816 19.2425 7.78254 18.8512 7.27951 19.0049C6.7625 19.1726 6.80442 19.6058 6.83237 20.0389C6.95813 21.5061 7.06991 22.9593 7.15375 24.4265C7.23759 25.9635 6.25947 27.4167 4.80627 27.9617C3.33909 28.5066 1.67629 28.0176 0.740095 26.788C-0.238022 25.5164 -0.251995 23.7837 0.67023 22.4842C1.56451 21.2267 3.22731 20.6957 4.70846 21.1847C5.8822 21.576 6.11974 21.3804 6.02193 20.1368C5.96604 19.2425 5.91014 18.3063 5.84028 17.3841Z" fill="#A3A3A3"/>
</g>
</g>
<path d="M41.802 26.2852V2.48515H51.56C53.2147 2.48515 54.6087 2.74582 55.742 3.26715C56.8753 3.78849 57.7367 4.51382 58.326 5.44316C58.9153 6.34982 59.21 7.40382 59.21 8.60515C59.21 9.80649 58.9493 10.8152 58.428 11.6312C57.9067 12.4472 57.2153 13.0818 56.354 13.5352C55.4927 13.9658 54.5633 14.2152 53.566 14.2832L54.11 13.9092C55.1753 13.9545 56.1273 14.2492 56.966 14.7932C57.8273 15.3145 58.5073 16.0172 59.006 16.9012C59.5047 17.7852 59.754 18.7485 59.754 19.7912C59.754 21.0605 59.448 22.1825 58.836 23.1572C58.224 24.1318 57.3287 24.9025 56.15 25.4692C54.994 26.0132 53.5773 26.2852 51.9 26.2852H41.802ZM46.392 22.5452H51.186C52.41 22.5452 53.362 22.2618 54.042 21.6952C54.7447 21.1285 55.096 20.3125 55.096 19.2472C55.096 18.1818 54.7333 17.3545 54.008 16.7652C53.3053 16.1532 52.342 15.8472 51.118 15.8472H46.392V22.5452ZM46.392 12.4132H50.812C52.0133 12.4132 52.9313 12.1412 53.566 11.5972C54.2007 11.0532 54.518 10.2825 54.518 9.28516C54.518 8.31049 54.2007 7.55115 53.566 7.00716C52.9313 6.44049 52.002 6.15716 50.778 6.15716H46.392V12.4132ZM62.244 26.2852V9.42116H66.222L66.63 12.9232H66.732C67.1853 11.9032 67.7066 11.1098 68.296 10.5432C68.908 9.97649 69.5993 9.57982 70.37 9.35316C71.1406 9.12649 71.9906 9.01316 72.92 9.01316V13.8752H71.696C70.948 13.8752 70.268 13.9658 69.656 14.1472C69.044 14.3058 68.534 14.5665 68.126 14.9292C67.718 15.2918 67.4006 15.7792 67.174 16.3912C66.9473 17.0032 66.834 17.7625 66.834 18.6692V26.2852H62.244ZM80.264 26.6932C78.904 26.6932 77.7706 26.4665 76.864 26.0132C75.98 25.5598 75.3226 24.9478 74.892 24.1772C74.484 23.4065 74.28 22.5565 74.28 21.6272C74.28 20.5845 74.5406 19.6665 75.062 18.8732C75.606 18.0798 76.422 17.4678 77.51 17.0372C78.598 16.5838 79.958 16.3572 81.59 16.3572H85.84C85.84 15.5185 85.7153 14.8385 85.466 14.3172C85.2393 13.7732 84.8766 13.3652 84.378 13.0932C83.902 12.8212 83.29 12.6852 82.542 12.6852C81.6806 12.6852 80.9326 12.8892 80.298 13.2972C79.6633 13.6825 79.278 14.2832 79.142 15.0992H74.688C74.8013 13.8525 75.198 12.7758 75.878 11.8692C76.5806 10.9625 77.51 10.2598 78.666 9.76116C79.822 9.26249 81.1253 9.01316 82.576 9.01316C84.1853 9.01316 85.5793 9.28516 86.758 9.82916C87.9366 10.3505 88.8433 11.1325 89.478 12.1752C90.1126 13.1952 90.43 14.4418 90.43 15.9152V26.2852H86.622L86.112 23.6672H86.044C85.7266 24.1432 85.364 24.5738 84.956 24.9592C84.5706 25.3445 84.14 25.6618 83.664 25.9112C83.188 26.1605 82.6666 26.3532 82.1 26.4892C81.5333 26.6252 80.9213 26.6932 80.264 26.6932ZM81.658 23.1572C82.27 23.1572 82.8026 23.0552 83.256 22.8512C83.732 22.6245 84.14 22.3298 84.48 21.9672C84.82 21.6045 85.0806 21.1852 85.262 20.7092C85.466 20.2105 85.602 19.7005 85.67 19.1792H82.134C81.4313 19.1792 80.8533 19.2698 80.4 19.4512C79.9466 19.6098 79.618 19.8478 79.414 20.1652C79.21 20.4598 79.108 20.8112 79.108 21.2192C79.108 21.6272 79.21 21.9785 79.414 22.2732C79.6406 22.5678 79.9353 22.7945 80.298 22.9532C80.6833 23.0892 81.1366 23.1572 81.658 23.1572ZM93.2065 26.2852V9.42116H97.1845L97.5585 12.2092H97.6265C98.1705 11.2118 98.9185 10.4298 99.8705 9.86316C100.823 9.29649 101.99 9.01316 103.373 9.01316C104.778 9.01316 105.968 9.31916 106.943 9.93116C107.917 10.5205 108.654 11.3932 109.153 12.5492C109.674 13.7052 109.935 15.1332 109.935 16.8332V26.2852H105.379V17.2412C105.379 15.8358 105.095 14.7592 104.529 14.0112C103.962 13.2632 103.055 12.8892 101.809 12.8892C101.038 12.8892 100.347 13.0818 99.7345 13.4672C99.1452 13.8298 98.6692 14.3625 98.3065 15.0652C97.9665 15.7452 97.7965 16.5838 97.7965 17.5812V26.2852H93.2065ZM120.27 26.6932C118.683 26.6932 117.278 26.3078 116.054 25.5372C114.853 24.7665 113.912 23.7238 113.232 22.4092C112.552 21.0718 112.212 19.5532 112.212 17.8532C112.212 16.1532 112.552 14.6345 113.232 13.2972C113.912 11.9598 114.864 10.9172 116.088 10.1692C117.312 9.39849 118.74 9.01316 120.372 9.01316C121.641 9.01316 122.752 9.26249 123.704 9.76116C124.679 10.2372 125.449 10.8605 126.016 11.6312V2.21316H130.606V26.2852H126.662L126.288 23.5312H126.22C125.835 24.1658 125.347 24.7212 124.758 25.1972C124.191 25.6732 123.534 26.0358 122.786 26.2852C122.038 26.5572 121.199 26.6932 120.27 26.6932ZM121.46 22.8172C122.389 22.8172 123.194 22.6132 123.874 22.2052C124.577 21.7745 125.121 21.1852 125.506 20.4372C125.914 19.6892 126.118 18.8165 126.118 17.8192C126.118 16.8445 125.914 15.9832 125.506 15.2352C125.121 14.4872 124.577 13.9092 123.874 13.5012C123.194 13.0705 122.389 12.8552 121.46 12.8552C120.576 12.8552 119.783 13.0705 119.08 13.5012C118.377 13.9092 117.833 14.4872 117.448 15.2352C117.063 15.9832 116.87 16.8445 116.87 17.8192C116.87 18.8165 117.063 19.6892 117.448 20.4372C117.833 21.1852 118.377 21.7745 119.08 22.2052C119.783 22.6132 120.576 22.8172 121.46 22.8172ZM139.308 26.6932C137.948 26.6932 136.815 26.4665 135.908 26.0132C135.024 25.5598 134.367 24.9478 133.936 24.1772C133.528 23.4065 133.324 22.5565 133.324 21.6272C133.324 20.5845 133.585 19.6665 134.106 18.8732C134.65 18.0798 135.466 17.4678 136.554 17.0372C137.642 16.5838 139.002 16.3572 140.634 16.3572H144.884C144.884 15.5185 144.76 14.8385 144.51 14.3172C144.284 13.7732 143.921 13.3652 143.422 13.0932C142.946 12.8212 142.334 12.6852 141.586 12.6852C140.725 12.6852 139.977 12.8892 139.342 13.2972C138.708 13.6825 138.322 14.2832 138.186 15.0992H133.732C133.846 13.8525 134.242 12.7758 134.922 11.8692C135.625 10.9625 136.554 10.2598 137.71 9.76116C138.866 9.26249 140.17 9.01316 141.62 9.01316C143.23 9.01316 144.624 9.28516 145.802 9.82916C146.981 10.3505 147.888 11.1325 148.522 12.1752C149.157 13.1952 149.474 14.4418 149.474 15.9152V26.2852H145.666L145.156 23.6672H145.088C144.771 24.1432 144.408 24.5738 144 24.9592C143.615 25.3445 143.184 25.6618 142.708 25.9112C142.232 26.1605 141.711 26.3532 141.144 26.4892C140.578 26.6252 139.966 26.6932 139.308 26.6932ZM140.702 23.1572C141.314 23.1572 141.847 23.0552 142.3 22.8512C142.776 22.6245 143.184 22.3298 143.524 21.9672C143.864 21.6045 144.125 21.1852 144.306 20.7092C144.51 20.2105 144.646 19.7005 144.714 19.1792H141.178C140.476 19.1792 139.898 19.2698 139.444 19.4512C138.991 19.6098 138.662 19.8478 138.458 20.1652C138.254 20.4598 138.152 20.8112 138.152 21.2192C138.152 21.6272 138.254 21.9785 138.458 22.2732C138.685 22.5678 138.98 22.7945 139.342 22.9532C139.728 23.0892 140.181 23.1572 140.702 23.1572ZM152.353 26.2852V2.21316H156.943V26.2852H152.353ZM160.487 26.2852V9.42116H165.077V26.2852H160.487ZM162.765 7.17716C161.949 7.17716 161.269 6.92782 160.725 6.42915C160.204 5.93049 159.943 5.30716 159.943 4.55915C159.943 3.81115 160.204 3.19915 160.725 2.72316C161.269 2.22449 161.949 1.97516 162.765 1.97516C163.604 1.97516 164.284 2.22449 164.805 2.72316C165.349 3.19915 165.621 3.82249 165.621 4.59316C165.621 5.31849 165.349 5.93049 164.805 6.42915C164.284 6.92782 163.604 7.17716 162.765 7.17716ZM167.145 26.2852L173.333 17.8532L167.145 9.42116H172.075L176.223 15.2352H176.325L180.439 9.42116H185.369L179.181 17.8532L185.369 26.2852H180.439L176.325 20.4712H176.223L172.075 26.2852H167.145Z" fill="#A3A3A3"/>
<defs>
<clipPath id="clip0_662_123">
<rect width="32" height="32" fill="white"/>
</clipPath>
<clipPath id="clip1_662_123">
<rect width="17.4249" height="28.2117" fill="white" transform="translate(0 0.00195312)"/>
</clipPath>
</defs>
</svg>
