<svg width="158" height="37" viewBox="0 0 158 37" fill="none" xmlns="http://www.w3.org/2000/svg">
<path d="M41.768 29C41.3147 29 40.9747 28.8867 40.748 28.66C40.544 28.4333 40.442 28.1387 40.442 27.776C40.442 27.3 40.6007 26.79 40.918 26.246L51.016 8.022H42.414C41.9833 8.022 41.6433 7.82933 41.394 7.444C41.1673 7.05867 41.054 6.60533 41.054 6.084C41.054 5.608 41.156 5.166 41.36 4.758C41.5867 4.35 41.938 4.146 42.414 4.146H55.334C55.7873 4.146 56.116 4.25933 56.32 4.486C56.5467 4.71267 56.66 4.996 56.66 5.336C56.66 5.812 56.49 6.34467 56.15 6.934L46.086 25.124H55.878C56.3313 25.124 56.6713 25.3393 56.898 25.77C57.1473 26.178 57.272 26.6087 57.272 27.062C57.272 27.5153 57.1473 27.9573 56.898 28.388C56.6713 28.796 56.3313 29 55.878 29H41.768ZM66.0756 29.306C64.4663 29.306 63.0383 29.0227 61.7916 28.456C60.5676 27.8667 59.6043 27.0507 58.9016 26.008C58.1989 24.9427 57.8476 23.7187 57.8476 22.336V19.446C57.8476 18.222 58.1763 17.1 58.8336 16.08C59.5136 15.0373 60.4089 14.21 61.5196 13.598C62.6529 12.9633 63.9109 12.646 65.2936 12.646C66.5629 12.646 67.7189 12.918 68.7616 13.462C69.8269 14.006 70.6883 14.754 71.3456 15.706C72.0029 16.658 72.3316 17.7687 72.3316 19.038C72.3316 20.0127 72.1729 20.7153 71.8556 21.146C71.5383 21.554 71.1303 21.8147 70.6316 21.928C70.1556 22.0187 69.6569 22.064 69.1356 22.064H62.2336V22.574C62.2336 23.5487 62.5963 24.342 63.3216 24.954C64.0696 25.5433 65.0329 25.838 66.2116 25.838C66.9596 25.838 67.5829 25.7247 68.0816 25.498C68.5803 25.2713 69.0109 25.056 69.3736 24.852C69.7363 24.648 70.0763 24.546 70.3936 24.546C70.7336 24.546 71.0283 24.6593 71.2776 24.886C71.5269 25.1127 71.7196 25.3847 71.8556 25.702C71.9916 25.9967 72.0596 26.2573 72.0596 26.484C72.0596 26.8693 71.8103 27.2887 71.3116 27.742C70.8356 28.1727 70.1443 28.5467 69.2376 28.864C68.3536 29.1587 67.2996 29.306 66.0756 29.306ZM62.2336 19.48H67.1976C67.5829 19.48 67.8436 19.4233 67.9796 19.31C68.1383 19.174 68.2176 18.9247 68.2176 18.562C68.2176 18.0407 68.0703 17.576 67.7756 17.168C67.5036 16.76 67.1409 16.4427 66.6876 16.216C66.2569 15.9893 65.7696 15.876 65.2256 15.876C64.7043 15.876 64.2169 15.9893 63.7636 16.216C63.3103 16.42 62.9363 16.726 62.6416 17.134C62.3696 17.5193 62.2336 17.984 62.2336 18.528V19.48ZM76.7976 36.514C76.1856 36.514 75.6756 36.3667 75.2676 36.072C74.8596 35.7773 74.6556 35.46 74.6556 35.12V14.21C74.6556 13.802 74.8596 13.4733 75.2676 13.224C75.6756 12.9747 76.1742 12.85 76.7636 12.85C77.3529 12.85 77.8289 12.9747 78.1916 13.224C78.5769 13.4733 78.7696 13.802 78.7696 14.21V15.23C79.1549 14.5727 79.7442 13.9833 80.5376 13.462C81.3309 12.918 82.2716 12.646 83.3596 12.646C84.5156 12.646 85.5469 12.9633 86.4536 13.598C87.3829 14.21 88.1082 15.0373 88.6296 16.08C89.1736 17.1227 89.4456 18.2787 89.4456 19.548V22.336C89.4456 23.5373 89.1736 24.6707 88.6296 25.736C88.0856 26.8013 87.3602 27.6627 86.4536 28.32C85.5696 28.9773 84.5836 29.306 83.4956 29.306C82.4982 29.306 81.5916 29.034 80.7756 28.49C79.9596 27.946 79.3816 27.3227 79.0416 26.62V35.12C79.0416 35.46 78.8262 35.7773 78.3956 36.072C77.9649 36.3667 77.4322 36.514 76.7976 36.514ZM82.0676 25.464C82.6116 25.464 83.0989 25.3167 83.5296 25.022C83.9829 24.7047 84.3456 24.308 84.6176 23.832C84.9122 23.356 85.0596 22.8573 85.0596 22.336V19.548C85.0596 19.0267 84.9236 18.5393 84.6516 18.086C84.3796 17.6327 84.0056 17.2587 83.5296 16.964C83.0762 16.6467 82.5662 16.488 81.9996 16.488C81.5009 16.488 81.0249 16.6127 80.5716 16.862C80.1409 17.1113 79.7782 17.4627 79.4836 17.916C79.1889 18.3693 79.0416 18.9133 79.0416 19.548V22.948C79.0416 23.1747 79.1662 23.492 79.4156 23.9C79.6876 24.2853 80.0502 24.648 80.5036 24.988C80.9569 25.3053 81.4782 25.464 82.0676 25.464ZM94.1224 29C93.4878 29 92.9664 28.8527 92.5584 28.558C92.1504 28.2633 91.9464 27.9347 91.9464 27.572V4.792C91.9464 4.384 92.1504 4.05533 92.5584 3.806C92.9664 3.55667 93.4878 3.432 94.1224 3.432C94.7344 3.432 95.2558 3.55667 95.6864 3.806C96.1171 4.05533 96.3324 4.384 96.3324 4.792V15.23C96.6724 14.5727 97.2051 13.9833 97.9304 13.462C98.6558 12.918 99.5511 12.646 100.616 12.646C101.682 12.646 102.656 12.9633 103.54 13.598C104.424 14.21 105.127 15.0373 105.648 16.08C106.192 17.1227 106.464 18.2787 106.464 19.548V27.572C106.464 28.048 106.238 28.4107 105.784 28.66C105.331 28.8867 104.821 29 104.254 29C103.756 29 103.268 28.8867 102.792 28.66C102.316 28.4107 102.078 28.048 102.078 27.572V19.548C102.078 19.0267 101.942 18.5393 101.67 18.086C101.398 17.6327 101.036 17.2587 100.582 16.964C100.152 16.6467 99.6644 16.488 99.1204 16.488C98.6671 16.488 98.2251 16.6127 97.7944 16.862C97.3638 17.1113 97.0124 17.4627 96.7404 17.916C96.4684 18.3693 96.3324 18.9133 96.3324 19.548V27.572C96.3324 27.9347 96.1171 28.2633 95.6864 28.558C95.2558 28.8527 94.7344 29 94.1224 29ZM109.679 36.514C109.113 36.514 108.637 36.4007 108.251 36.174C107.866 35.97 107.673 35.46 107.673 34.644C107.673 34.1453 107.753 33.7147 107.911 33.352C108.093 32.9893 108.387 32.808 108.795 32.808C109.181 32.808 109.623 32.74 110.121 32.604C110.643 32.468 111.164 32.2073 111.685 31.822C112.207 31.4593 112.649 30.9493 113.011 30.292C113.374 29.6573 113.589 28.83 113.657 27.81L107.809 15.298C107.719 15.094 107.673 14.9013 107.673 14.72C107.673 14.3347 107.832 13.9833 108.149 13.666C108.489 13.3487 108.886 13.0993 109.339 12.918C109.793 12.714 110.212 12.612 110.597 12.612C110.869 12.612 111.119 12.6687 111.345 12.782C111.595 12.8953 111.765 13.088 111.855 13.36L115.935 23.526L119.199 13.36C119.313 13.088 119.483 12.8953 119.709 12.782C119.936 12.6687 120.163 12.612 120.389 12.612C120.729 12.612 121.137 12.714 121.613 12.918C122.089 13.0993 122.497 13.36 122.837 13.7C123.2 14.0173 123.381 14.38 123.381 14.788C123.381 14.992 123.347 15.162 123.279 15.298L118.315 27.98C117.907 29 117.511 30.0087 117.125 31.006C116.74 32.026 116.253 32.944 115.663 33.76C115.097 34.5987 114.337 35.2673 113.385 35.766C112.433 36.2647 111.198 36.514 109.679 36.514ZM127.109 29C126.497 29 125.987 28.8527 125.579 28.558C125.171 28.2633 124.967 27.9347 124.967 27.572V14.21C124.967 13.802 125.171 13.4733 125.579 13.224C125.987 12.9747 126.497 12.85 127.109 12.85C127.675 12.85 128.14 12.9747 128.503 13.224C128.888 13.4733 129.081 13.802 129.081 14.21V15.604C129.33 15.1053 129.659 14.6407 130.067 14.21C130.497 13.7567 130.985 13.3827 131.529 13.088C132.073 12.7933 132.651 12.646 133.263 12.646H134.317C134.747 12.646 135.121 12.8387 135.439 13.224C135.756 13.5867 135.915 14.0287 135.915 14.55C135.915 15.094 135.756 15.5587 135.439 15.944C135.121 16.3067 134.747 16.488 134.317 16.488H133.263C132.628 16.488 132.005 16.7033 131.393 17.134C130.803 17.542 130.316 18.12 129.931 18.868C129.545 19.5933 129.353 20.4773 129.353 21.52V27.572C129.353 27.9347 129.137 28.2633 128.707 28.558C128.276 28.8527 127.743 29 127.109 29ZM139.553 9.246C138.895 9.246 138.329 9.03067 137.853 8.6C137.377 8.14667 137.139 7.648 137.139 7.104C137.139 6.51467 137.377 6.016 137.853 5.608C138.329 5.17733 138.895 4.962 139.553 4.962C140.233 4.962 140.799 5.17733 141.253 5.608C141.706 6.016 141.933 6.51467 141.933 7.104C141.933 7.648 141.706 8.14667 141.253 8.6C140.799 9.03067 140.233 9.246 139.553 9.246ZM139.553 29C138.918 29 138.397 28.8527 137.989 28.558C137.581 28.2633 137.377 27.9347 137.377 27.572V14.21C137.377 13.802 137.581 13.4733 137.989 13.224C138.397 12.9747 138.918 12.85 139.553 12.85C140.165 12.85 140.686 12.9747 141.117 13.224C141.547 13.4733 141.763 13.802 141.763 14.21V27.572C141.763 27.9347 141.547 28.2633 141.117 28.558C140.686 28.8527 140.165 29 139.553 29ZM150.043 29.306C148.91 29.306 147.867 29.17 146.915 28.898C145.986 28.6033 145.249 28.2293 144.705 27.776C144.184 27.3227 143.923 26.858 143.923 26.382C143.923 26.1327 143.98 25.8607 144.093 25.566C144.229 25.2713 144.399 25.0107 144.603 24.784C144.83 24.5573 145.09 24.444 145.385 24.444C145.702 24.444 146.031 24.58 146.371 24.852C146.734 25.1013 147.176 25.3507 147.697 25.6C148.241 25.8493 148.989 25.974 149.941 25.974C150.961 25.974 151.63 25.8153 151.947 25.498C152.287 25.1807 152.457 24.852 152.457 24.512C152.457 24.0133 152.253 23.628 151.845 23.356C151.46 23.084 150.961 22.8687 150.349 22.71C149.737 22.5287 149.08 22.336 148.377 22.132C147.697 21.928 147.051 21.6673 146.439 21.35C145.827 21.01 145.328 20.5567 144.943 19.99C144.558 19.4007 144.365 18.6413 144.365 17.712C144.365 16.896 144.558 16.1027 144.943 15.332C145.328 14.5613 145.963 13.9267 146.847 13.428C147.731 12.9067 148.932 12.646 150.451 12.646C151.38 12.646 152.253 12.748 153.069 12.952C153.908 13.1333 154.588 13.394 155.109 13.734C155.63 14.074 155.891 14.448 155.891 14.856C155.891 15.06 155.823 15.332 155.687 15.672C155.551 15.9893 155.358 16.284 155.109 16.556C154.882 16.828 154.599 16.964 154.259 16.964C154.01 16.964 153.704 16.8847 153.341 16.726C153.001 16.5447 152.604 16.3747 152.151 16.216C151.698 16.0573 151.154 15.978 150.519 15.978C149.952 15.978 149.499 16.0573 149.159 16.216C148.819 16.3747 148.57 16.5673 148.411 16.794C148.252 17.0207 148.173 17.2587 148.173 17.508C148.173 17.916 148.366 18.2333 148.751 18.46C149.136 18.6867 149.635 18.8793 150.247 19.038C150.882 19.1967 151.539 19.378 152.219 19.582C152.922 19.7633 153.579 20.0353 154.191 20.398C154.826 20.7607 155.336 21.2593 155.721 21.894C156.106 22.506 156.299 23.3107 156.299 24.308C156.299 25.8267 155.755 27.0393 154.667 27.946C153.602 28.8527 152.06 29.306 150.043 29.306Z" fill="#A3A3A3"/>
<path d="M22.9301 20.5359C22.9301 21.4312 22.8201 22.324 22.6116 23.1983C22.5905 23.2849 22.574 23.3739 22.5505 23.4606C22.5505 23.4654 22.5481 23.4675 22.5481 23.4699C22.049 25.3681 21.0599 27.1541 19.5716 28.6444C18.3858 29.8303 17.01 30.6976 15.5429 31.2529C15.5404 31.2554 15.538 31.2553 15.536 31.2578C14.2282 31.7523 12.8432 32.0008 11.4603 32.0008C8.62668 32.0008 5.80279 30.9603 3.59737 28.8767C3.51764 28.8018 3.43583 28.7221 3.3561 28.6448C3.27879 28.565 3.19907 28.4853 3.12417 28.4035C1.04059 26.1981 0 23.3743 0 20.5407C0 20.236 0.0141536 19.9337 0.0376229 19.6313C0.480432 20.2501 0.979841 20.8407 1.53516 21.396C3.34678 23.21 5.54289 24.4262 7.86048 25.0378C7.86532 25.0402 7.86979 25.0426 7.87704 25.0426C8.61045 25.2373 9.35837 25.3709 10.1104 25.4433C10.2675 25.4575 10.4269 25.4692 10.5839 25.481C10.8746 25.4975 11.1627 25.5068 11.4533 25.5068C11.4582 25.5068 11.4627 25.5093 11.4675 25.5093C12.2644 25.5093 13.0589 25.4413 13.8438 25.3053C14.6314 25.1693 15.4069 24.9653 16.1662 24.6958C16.2621 24.663 16.3584 24.6302 16.4544 24.595H16.4568C18.2567 23.9106 19.9465 22.8421 21.3946 21.396C21.95 20.8407 22.447 20.2501 22.8898 19.6289C22.9015 19.758 22.9108 19.8867 22.9177 20.0179C22.9253 20.1891 22.9301 20.3627 22.9301 20.5359Z" fill="#A3A3A3"/>
<path d="M31.9992 11.4551C31.9992 11.7599 31.9851 12.0667 31.9616 12.3691C31.5164 11.7502 31.0193 11.1597 30.464 10.6044C28.65 8.79038 26.4563 7.57414 24.1387 6.96256C24.1339 6.96015 24.127 6.95773 24.1221 6.95773C23.241 6.72339 22.3409 6.57809 21.4363 6.51942C21.1364 6.50078 20.834 6.49146 20.5317 6.49146C20.3208 6.49146 20.1075 6.49629 19.8966 6.50561C19.6202 6.51976 19.3434 6.54082 19.0669 6.56877C18.882 6.58741 18.699 6.61087 18.514 6.63676C18.4226 6.65091 18.3311 6.66471 18.2397 6.68128C18.2 6.68611 18.1575 6.69302 18.1178 6.69992C18.1085 6.70233 18.0992 6.70234 18.0899 6.70475C18.0478 6.71166 18.0077 6.7189 17.9656 6.72822C17.8742 6.74479 17.7827 6.76101 17.6916 6.77964C17.6001 6.79828 17.5086 6.81933 17.4196 6.84039C17.3727 6.8497 17.3281 6.86144 17.2836 6.87076C17.2602 6.87766 17.2367 6.88249 17.2156 6.88732C17.1922 6.89216 17.1711 6.89906 17.1476 6.90596C17.0562 6.92701 16.9647 6.95049 16.8757 6.97395C16.7632 7.00433 16.6506 7.0347 16.5381 7.06783C16.5264 7.07266 16.5147 7.07473 16.5029 7.07956C16.4936 7.0844 16.4843 7.08646 16.475 7.08888C16.4705 7.08888 16.4656 7.0913 16.4587 7.09372C16.4563 7.09372 16.4539 7.09372 16.4518 7.09613C16.4332 7.10096 16.4121 7.10545 16.3907 7.11477C16.3814 7.11719 16.3745 7.1196 16.3649 7.12167C16.3556 7.12408 16.3462 7.12857 16.3366 7.13099C16.2827 7.14756 16.2289 7.16619 16.1747 7.18242C16.1278 7.19898 16.0808 7.21279 16.0363 7.22935C16.0294 7.23177 16.0197 7.23418 16.0128 7.23625C15.9894 7.24316 15.9659 7.25282 15.9424 7.25972C15.919 7.26663 15.8955 7.27629 15.872 7.28319C15.8485 7.29009 15.8275 7.29976 15.804 7.30907C15.715 7.33945 15.6284 7.37223 15.5417 7.40502H15.5393C13.7394 8.087 12.0496 9.15795 10.6035 10.604C10.0482 11.1594 9.54877 11.7499 9.10596 12.3687C9.09664 12.242 9.08734 12.1133 9.08009 11.9866C9.07319 11.813 9.06836 11.6422 9.06836 11.4686C9.06836 11.3444 9.07768 11.2225 9.08009 11.0983C9.10598 10.3131 9.21124 9.52792 9.39658 8.76173C9.41315 8.68684 9.42695 8.61402 9.448 8.53913C9.448 8.53671 9.44801 8.53429 9.45042 8.53222C9.94949 6.634 10.9362 4.84795 12.4269 3.35767C13.6128 2.1718 14.9885 1.30482 16.4581 0.747091C17.7751 0.245615 19.1719 0.00195312 20.5711 0.00195312C23.3881 0.00195312 26.2002 1.04736 28.4011 3.12608C28.4809 3.20098 28.5606 3.27829 28.6403 3.35801V3.36043C28.72 3.43774 28.7974 3.51746 28.8747 3.5996C30.9562 5.80465 31.9968 8.62403 31.9992 11.4551Z" fill="#A3A3A3"/>
<path d="M10.6046 21.3947C11.16 21.95 11.7505 22.4494 12.3693 22.8922C12.0694 22.9157 11.7695 22.9298 11.4671 22.9298C10.4828 22.9298 9.49606 22.8032 8.54003 22.5502C8.5352 22.5502 8.53314 22.5478 8.53072 22.5478C6.63454 22.0487 4.84639 21.0596 3.35817 19.5714C2.17228 18.3855 1.30289 17.0122 0.745148 15.5451C0.248152 14.2325 0 12.8451 0 11.458C0 8.62691 1.04059 5.80511 3.12417 3.59765C3.19907 3.51793 3.27878 3.4382 3.3585 3.35847C3.43582 3.27875 3.51796 3.20144 3.59768 3.12413C5.80552 1.04057 8.62943 0 11.4654 0C11.7678 0 12.0701 0.0141534 12.3724 0.0376224C12.3583 0.0469409 12.3445 0.0562586 12.3303 0.067993C11.7256 0.503894 11.1493 0.993638 10.6053 1.53515C8.7913 3.34916 7.57262 5.54489 6.96345 7.86279C6.96104 7.86762 6.95862 7.87211 6.95654 7.87694C6.6473 9.05349 6.49268 10.2628 6.49268 11.4698C6.49268 13.1619 6.79744 14.8517 7.40661 16.4569C8.08756 18.2568 9.15644 19.9489 10.6046 21.3947Z" fill="#A3A3A3"/>
<path d="M31.9999 20.5425C31.9999 23.3736 30.9593 26.195 28.8757 28.4028C28.7984 28.4826 28.7211 28.5623 28.6413 28.642C28.5616 28.7217 28.4819 28.7991 28.4022 28.8764C26.1943 30.9599 23.3728 32.0005 20.5417 32.0005C20.2369 32.0005 19.9322 31.9863 19.6302 31.9629C20.249 31.5201 20.8395 31.0207 21.3949 30.4678C23.2065 28.6538 24.4252 26.4601 25.0367 24.1425C25.0391 24.1356 25.0412 24.1308 25.0412 24.126C25.1586 23.6852 25.2521 23.24 25.3249 22.7903C25.3743 22.4928 25.4116 22.1926 25.4419 21.8926C25.484 21.4402 25.5075 20.988 25.5075 20.5356C25.5075 18.841 25.2027 17.1491 24.5936 15.5412C24.2515 14.6414 23.8132 13.7696 23.279 12.9399C22.7468 12.1126 22.1165 11.3299 21.3945 10.6079C20.8392 10.0501 20.2462 9.55315 19.625 9.10793C19.7537 9.09861 19.8828 9.08929 20.014 9.08205C20.1852 9.07514 20.3584 9.07031 20.532 9.07031C20.7781 9.07031 21.0242 9.07721 21.2727 9.09378C22.0085 9.14072 22.7399 9.26014 23.4591 9.44996C23.4615 9.44996 23.4639 9.45237 23.4684 9.45237C25.3643 9.95143 27.1503 10.9406 28.641 12.4288C29.8269 13.6147 30.6939 14.9879 31.254 16.4575C31.7514 17.7676 31.9999 19.1551 31.9999 20.5425Z" fill="#A3A3A3"/>
</svg>
