<svg width="38" height="38" viewBox="0 0 38 38" fill="none" xmlns="http://www.w3.org/2000/svg">
<path d="M4.91923 14.8438C4.91923 7.07998 11.2362 0.762977 19 0.762977C26.7638 0.762977 33.0808 7.07998 33.0808 14.8438C33.0808 18.5759 30.8061 23.4736 26.1629 29.429C24.0433 32.1406 21.7479 34.7101 19.2916 37.121C19.2128 37.1955 19.1085 37.237 19 37.237C18.8915 37.237 18.7872 37.1955 18.7084 37.121C16.2521 34.7101 13.9567 32.1406 11.8371 29.429C7.19392 23.4736 4.91923 18.5759 4.91923 14.8438ZM8.14327 14.8438C8.14327 20.8309 13.0129 25.7005 19 25.7005C24.9871 25.7005 29.8567 20.8309 29.8567 14.8438C29.8567 8.85664 24.9871 3.98702 19 3.98702C13.0129 3.98702 8.14327 8.85664 8.14327 14.8438Z" fill="white" stroke="white" stroke-width="0.932203"/>
<path d="M12.4954 14.6745V14.6744L12.4888 14.6745C12.4112 14.6756 12.3347 14.6566 12.2666 14.6194C12.1997 14.5827 12.1432 14.5295 12.1025 14.465C12.0536 14.3815 12.0346 14.2837 12.0488 14.1879C12.0632 14.0909 12.1107 14.0018 12.1833 13.9358L18.7145 7.99838C18.7145 7.99837 18.7145 7.99837 18.7145 7.99837C18.7926 7.92734 18.8944 7.88798 19 7.88798C19.1057 7.88798 19.2075 7.92734 19.2856 7.99837C19.2856 7.99837 19.2856 7.99837 19.2856 7.99838L25.8168 13.9358C25.8894 14.0018 25.9369 14.0909 25.9513 14.1879C25.9655 14.2837 25.9465 14.3815 25.8976 14.465C25.8569 14.5295 25.8004 14.5827 25.7335 14.6194C25.6654 14.6566 25.5889 14.6756 25.5113 14.6745L25.5113 14.6745H25.5047H24.6407H24.1746V15.1406V20.7812C24.1746 20.8938 24.1298 21.0018 24.0502 21.0814C23.9706 21.161 23.8626 21.2057 23.75 21.2057H21.6719C21.5593 21.2057 21.4514 21.161 21.3717 21.0814C21.2921 21.0018 21.2474 20.8938 21.2474 20.7812V17.5156C21.2474 17.1558 21.1045 16.8107 20.85 16.5562C20.5956 16.3018 20.2505 16.1589 19.8907 16.1589H18.1094C17.7496 16.1589 17.4045 16.3018 17.1501 16.5562C16.8956 16.8107 16.7527 17.1558 16.7527 17.5156V20.7812C16.7527 20.8938 16.708 21.0018 16.6284 21.0814C16.5487 21.161 16.4408 21.2057 16.3282 21.2057H14.25C14.1375 21.2057 14.0295 21.161 13.9499 21.0814C13.8703 21.0018 13.8255 20.8938 13.8255 20.7812V15.1406V14.6745H13.3594H12.4954Z" fill="white" stroke="white" stroke-width="0.932203"/>
</svg>
