<svg width="40" height="40" viewBox="0 0 40 40" fill="none" xmlns="http://www.w3.org/2000/svg" role="img" aria-label="Diesel Part Source">
  <defs>
    <linearGradient id="dps-icon-gradient" x1="5" y1="3" x2="35" y2="37" gradientUnits="userSpaceOnUse">
      <stop stop-color="#146EF5"/>
      <stop offset="1" stop-color="#0B3F8F"/>
    </linearGradient>
  </defs>
  <rect width="40" height="40" rx="9" fill="#F7FAFF"/>
  <path d="M20 3.5L34.6 11.8V28.2L20 36.5L5.4 28.2V11.8L20 3.5Z" fill="url(#dps-icon-gradient)"/>
  <path d="M20 8.3L30.2 14.1V25.9L20 31.7L9.8 25.9V14.1L20 8.3Z" fill="#FFFFFF" fill-opacity="0.14"/>
  <path d="M15.2 11.4H20.2C25.5 11.4 28.9 14.6 28.9 20C28.9 25.4 25.5 28.6 20.2 28.6H15.2V24.9H19.9C22.7 24.9 24.5 23.1 24.5 20C24.5 16.9 22.7 15.1 19.9 15.1H15.2V11.4Z" fill="#FFFFFF"/>
  <path d="M11.1 11.4H14.9V28.6H11.1V11.4Z" fill="#FFFFFF"/>
  <path d="M29.9 8.2L32 9.4V11.8L29.9 13L27.8 11.8V9.4L29.9 8.2Z" fill="#9FD1FF"/>
</svg>
