<svg width="258" height="40" viewBox="0 0 258 40" fill="none" xmlns="http://www.w3.org/2000/svg" role="img" aria-label="Diesel Part Source">
  <defs>
    <linearGradient id="dps-mark-gradient" x1="5" y1="4" x2="34" y2="36" gradientUnits="userSpaceOnUse">
      <stop stop-color="#146EF5"/>
      <stop offset="1" stop-color="#0B3F8F"/>
    </linearGradient>
  </defs>
  <path d="M20 2.8L35.1 11.4V28.6L20 37.2L4.9 28.6V11.4L20 2.8Z" fill="url(#dps-mark-gradient)"/>
  <path d="M20 7.5L30.9 13.7V26.3L20 32.5L9.1 26.3V13.7L20 7.5Z" fill="#FFFFFF" fill-opacity="0.14"/>
  <path d="M15.2 10.6H20.4C25.8 10.6 29.3 14 29.3 19.9C29.3 25.8 25.8 29.4 20.4 29.4H15.2V25.6H20.1C23.1 25.6 24.9 23.6 24.9 19.9C24.9 16.3 23.1 14.4 20.1 14.4H15.2V10.6Z" fill="#FFFFFF"/>
  <path d="M10.7 10.6H14.8V29.4H10.7V10.6Z" fill="#FFFFFF"/>
  <path d="M30.8 8.2L33 9.5V12L30.8 13.3L28.6 12V9.5L30.8 8.2Z" fill="#9FD1FF"/>
  <text x="50" y="22" font-family="Inter Tight, Arial, Helvetica, sans-serif" font-size="21" font-weight="800" letter-spacing="0" fill="#07111F">Diesel Part</text>
  <text x="50" y="34" font-family="Urbanist, Arial, Helvetica, sans-serif" font-size="10" font-weight="800" letter-spacing="2.6" fill="#146EF5">SOURCE</text>
  <path d="M179 27.5H246" stroke="#C8D6E8" stroke-width="1.5" stroke-linecap="round"/>
  <path d="M179 31.5H226" stroke="#146EF5" stroke-width="1.5" stroke-linecap="round"/>
</svg>
