<svg width="44" height="44" viewBox="0 0 44 44" fill="none" xmlns="http://www.w3.org/2000/svg" role="img" aria-label="Diesel Part Source">
  <defs>
    <linearGradient id="dps-compact-gradient" x1="6" y1="4" x2="38" y2="40" gradientUnits="userSpaceOnUse">
      <stop stop-color="#146EF5"/>
      <stop offset="1" stop-color="#0B3F8F"/>
    </linearGradient>
  </defs>
  <path d="M22 3.2L38.2 12.6V31.4L22 40.8L5.8 31.4V12.6L22 3.2Z" fill="url(#dps-compact-gradient)"/>
  <path d="M22 8.6L33.5 15.3V28.7L22 35.4L10.5 28.7V15.3L22 8.6Z" fill="#FFFFFF" fill-opacity="0.14"/>
  <path d="M16.8 12H22.4C28 12 31.7 15.6 31.7 22C31.7 28.4 28 32 22.4 32H16.8V27.9H22.1C25.3 27.9 27.1 25.8 27.1 22C27.1 18.2 25.3 16.1 22.1 16.1H16.8V12Z" fill="#FFFFFF"/>
  <path d="M12 12H16.4V32H12V12Z" fill="#FFFFFF"/>
  <path d="M32.9 9L35.3 10.4V13.1L32.9 14.5L30.5 13.1V10.4L32.9 9Z" fill="#9FD1FF"/>
</svg>
