<svg width="125" height="32" viewBox="0 0 125 32" fill="none" xmlns="http://www.w3.org/2000/svg">
<path d="M14.6676 23.2141C14.5996 23.1469 14.5316 23.0529 14.4773 22.9723L10.5897 29.6356L3.75253 25.7397C2.25732 24.8799 1.33301 23.3081 1.33301 21.5886V10.3846C1.33301 8.67843 2.25732 7.0932 3.75253 6.23342L4.50014 5.80353L8.87703 13.2997L14.5045 22.932L14.6676 23.2141Z" fill="#146EF5"/>
<path d="M30.653 10.3846V11.0428H21.7904C21.6545 11.016 21.5322 11.0025 21.3826 11.0025H10.6035C10.6035 11.0025 10.5492 11.0025 10.522 11.0025L6.74316 4.54072L13.5668 0.644836C15.062 -0.214945 16.9106 -0.214945 18.4058 0.644836L28.2198 6.24685C29.7151 7.10663 30.6394 8.67842 30.6394 10.398L30.653 10.3846Z" fill="#146EF5"/>
<path d="M30.6532 13.6087V21.602C30.6532 23.3081 29.7289 24.8933 28.2337 25.7531L18.4197 31.3551C16.9244 32.2149 15.0758 32.2149 13.5806 31.3551L12.833 30.9252L17.3458 23.2006C17.4274 23.1066 17.4953 23.0126 17.5633 22.9051L22.9461 13.6759C22.9461 13.6759 22.9733 13.6356 22.9869 13.6087H30.6668H30.6532Z" fill="#146EF5"/>
<path d="M38.5459 9.95312V7.08398H53.6279V9.95312H47.7881V26H44.3984V9.95312H38.5459ZM53.9326 26V11.8066H57.1699V14.1934H57.3223C57.5762 13.3639 58.0205 12.7292 58.6553 12.2891C59.29 11.8405 60.0137 11.6162 60.8262 11.6162C61.0039 11.6162 61.207 11.6247 61.4355 11.6416C61.6725 11.6585 61.8672 11.6797 62.0195 11.7051V14.7773C61.8757 14.7266 61.6514 14.6842 61.3467 14.6504C61.042 14.6165 60.75 14.5996 60.4707 14.5996C59.8529 14.5996 59.3027 14.7308 58.8203 14.9932C58.3379 15.2555 57.957 15.6152 57.6777 16.0723C57.4069 16.5293 57.2715 17.0625 57.2715 17.6719V26H53.9326ZM67.085 26.292C66.1794 26.292 65.3669 26.1312 64.6475 25.8096C63.9281 25.4795 63.361 24.9971 62.9463 24.3623C62.5316 23.7275 62.3242 22.9447 62.3242 22.0137C62.3242 21.2181 62.4723 20.5579 62.7686 20.0332C63.0648 19.5085 63.4668 19.0895 63.9746 18.7764C64.4909 18.4632 65.0706 18.2262 65.7139 18.0654C66.3571 17.8962 67.0215 17.7777 67.707 17.71C68.5449 17.6169 69.222 17.5365 69.7383 17.4688C70.2546 17.401 70.627 17.291 70.8555 17.1387C71.0924 16.9863 71.2109 16.7493 71.2109 16.4277V16.3643C71.2109 15.6787 71.0078 15.1455 70.6016 14.7646C70.1953 14.3838 69.6029 14.1934 68.8242 14.1934C68.0033 14.1934 67.3516 14.3711 66.8691 14.7266C66.3952 15.082 66.0736 15.501 65.9043 15.9834L62.7939 15.5391C63.0394 14.6758 63.4456 13.9564 64.0127 13.3809C64.5798 12.7969 65.2695 12.361 66.082 12.0732C66.903 11.777 67.8086 11.6289 68.7988 11.6289C69.4759 11.6289 70.153 11.7093 70.8301 11.8701C71.5072 12.0225 72.1292 12.2848 72.6963 12.6572C73.2633 13.0296 73.7161 13.529 74.0547 14.1553C74.3932 14.7816 74.5625 15.5645 74.5625 16.5039V26H71.3506V24.0449H71.249C71.0459 24.4342 70.7581 24.8024 70.3857 25.1494C70.0218 25.488 69.5648 25.763 69.0146 25.9746C68.473 26.1862 67.8298 26.292 67.085 26.292ZM67.9355 23.8291C68.6126 23.8291 69.1966 23.6979 69.6875 23.4355C70.1784 23.1647 70.5592 22.8092 70.8301 22.3691C71.1009 21.9206 71.2363 21.4339 71.2363 20.9092V19.2461C71.1263 19.3307 70.9486 19.4111 70.7031 19.4873C70.4577 19.555 70.1784 19.6185 69.8652 19.6777C69.5521 19.737 69.2432 19.7878 68.9385 19.8301C68.6423 19.8724 68.3841 19.9062 68.1641 19.9316C67.6647 19.9993 67.2161 20.1136 66.8184 20.2744C66.429 20.4268 66.1201 20.6383 65.8916 20.9092C65.6631 21.18 65.5488 21.5312 65.5488 21.9629C65.5488 22.5807 65.7731 23.0462 66.2217 23.3594C66.6702 23.6725 67.2415 23.8291 67.9355 23.8291ZM80.377 17.6973V26H77.0381V11.8066H80.3135V14.2314H80.4785C80.8001 13.4359 81.3037 12.8053 81.9893 12.3398C82.6833 11.8659 83.5635 11.6289 84.6299 11.6289C85.6117 11.6289 86.4665 11.8363 87.1943 12.251C87.9222 12.6657 88.485 13.2751 88.8828 14.0791C89.2891 14.8747 89.4922 15.8395 89.4922 16.9736V26H86.1533V17.4941C86.1533 16.5462 85.9079 15.8057 85.417 15.2725C84.9261 14.7308 84.249 14.46 83.3857 14.46C82.8018 14.46 82.2812 14.5869 81.8242 14.8408C81.3757 15.0947 81.0202 15.4629 80.7578 15.9453C80.5039 16.4193 80.377 17.0033 80.377 17.6973ZM103.165 15.5771L100.131 15.8945C100.004 15.429 99.7288 15.0186 99.3057 14.6631C98.8825 14.2992 98.2858 14.1172 97.5156 14.1172C96.8216 14.1172 96.2376 14.2695 95.7637 14.5742C95.2982 14.8789 95.0654 15.2682 95.0654 15.7422C95.0654 16.1569 95.2178 16.4997 95.5225 16.7705C95.8356 17.0329 96.3519 17.2445 97.0713 17.4053L99.4961 17.9131C100.825 18.1924 101.819 18.6494 102.479 19.2842C103.14 19.9189 103.47 20.7399 103.47 21.7471C103.47 22.6357 103.212 23.4229 102.695 24.1084C102.179 24.7939 101.464 25.3271 100.55 25.708C99.6442 26.0889 98.599 26.2793 97.4141 26.2793C95.679 26.2793 94.2826 25.9154 93.2246 25.1875C92.1751 24.4512 91.5446 23.4313 91.333 22.1279L94.5957 21.8232C94.7396 22.458 95.0527 22.9404 95.5352 23.2705C96.026 23.5921 96.6523 23.7529 97.4141 23.7529C98.2096 23.7529 98.8486 23.5921 99.3311 23.2705C99.8135 22.9404 100.055 22.5384 100.055 22.0645C100.055 21.2689 99.4199 20.7272 98.1504 20.4395L95.7256 19.9316C94.363 19.6354 93.3558 19.1572 92.7041 18.4971C92.0524 17.8285 91.7266 16.9779 91.7266 15.9453C91.7266 15.0651 91.9678 14.3034 92.4502 13.6602C92.9326 13.0169 93.6055 12.5176 94.4688 12.1621C95.332 11.8066 96.3307 11.6289 97.4648 11.6289C99.1322 11.6289 100.44 11.9886 101.388 12.708C102.344 13.4189 102.937 14.3753 103.165 15.5771ZM105.272 26V11.8066H108.611V26H105.272ZM106.948 9.81348C106.415 9.81348 105.958 9.63574 105.577 9.28027C105.196 8.9248 105.006 8.4974 105.006 7.99805C105.006 7.49023 105.196 7.05859 105.577 6.70312C105.958 6.34766 106.415 6.16992 106.948 6.16992C107.473 6.16992 107.926 6.34766 108.307 6.70312C108.688 7.05859 108.878 7.486 108.878 7.98535C108.878 8.49316 108.688 8.9248 108.307 9.28027C107.926 9.63574 107.473 9.81348 106.948 9.81348ZM117.27 26.2793C115.882 26.2793 114.68 25.9746 113.664 25.3652C112.648 24.7559 111.861 23.901 111.303 22.8008C110.753 21.7005 110.478 20.4225 110.478 18.9668C110.478 17.5026 110.753 16.2204 111.303 15.1201C111.861 14.0114 112.648 13.1523 113.664 12.543C114.68 11.9336 115.882 11.6289 117.27 11.6289C118.658 11.6289 119.859 11.9336 120.875 12.543C121.891 13.1523 122.678 14.0114 123.236 15.1201C123.795 16.2204 124.074 17.5026 124.074 18.9668C124.074 20.4225 123.795 21.7005 123.236 22.8008C122.678 23.901 121.891 24.7559 120.875 25.3652C119.859 25.9746 118.658 26.2793 117.27 26.2793ZM117.27 23.5879C118.04 23.5879 118.674 23.3848 119.174 22.9785C119.673 22.5638 120.046 22.0052 120.291 21.3027C120.545 20.6003 120.672 19.8216 120.672 18.9668C120.672 18.0951 120.545 17.3079 120.291 16.6055C120.046 15.903 119.673 15.3486 119.174 14.9424C118.674 14.5277 118.04 14.3203 117.27 14.3203C116.516 14.3203 115.886 14.5277 115.378 14.9424C114.87 15.3486 114.489 15.903 114.235 16.6055C113.99 17.3079 113.867 18.0951 113.867 18.9668C113.867 19.8216 113.99 20.6003 114.235 21.3027C114.489 22.0052 114.87 22.5638 115.378 22.9785C115.886 23.3848 116.516 23.5879 117.27 23.5879Z" fill="#080808"/>
</svg>
