<svg width="48" height="48" viewBox="0 0 48 48" fill="none" xmlns="http://www.w3.org/2000/svg">
  <defs>
    <linearGradient id="al-base" x1="8" y1="10" x2="40" y2="38" gradientUnits="userSpaceOnUse">
      <stop stop-color="#B8BEC8"/>
      <stop offset="0.45" stop-color="#E8ECF2"/>
      <stop offset="1" stop-color="#9AA3B0"/>
    </linearGradient>
    <linearGradient id="al-face" x1="14" y1="14" x2="34" y2="34" gradientUnits="userSpaceOnUse">
      <stop stop-color="#F4F6FA"/>
      <stop offset="1" stop-color="#C5CBD6"/>
    </linearGradient>
    <linearGradient id="al-edge" x1="30" y1="12" x2="42" y2="36" gradientUnits="userSpaceOnUse">
      <stop stop-color="#8E97A6"/>
      <stop offset="1" stop-color="#6D7685"/>
    </linearGradient>
  </defs>
  <path d="M10 14L28 8L38 14V34L20 40L10 34V14Z" fill="url(#al-edge)"/>
  <path d="M10 14L20 20V40L10 34V14Z" fill="#7A8494"/>
  <path d="M20 20L38 14V34L20 40V20Z" fill="url(#al-base)"/>
  <path d="M20 20L28 8L38 14L20 20Z" fill="url(#al-face)"/>
  <path d="M10 14L20 20L28 8L18 12L10 14Z" fill="#D8DEE8"/>
  <path d="M22 22H34" stroke="#FFFFFF" stroke-opacity="0.55" stroke-width="1.2" stroke-linecap="round"/>
  <path d="M22 26H34" stroke="#FFFFFF" stroke-opacity="0.35" stroke-width="1.2" stroke-linecap="round"/>
  <path d="M22 30H30" stroke="#FFFFFF" stroke-opacity="0.25" stroke-width="1.2" stroke-linecap="round"/>
</svg>
