<svg width="48" height="48" viewBox="0 0 48 48" fill="none" xmlns="http://www.w3.org/2000/svg">
  <defs>
    <linearGradient id="ti-sheet" x1="8" y1="12" x2="40" y2="36" gradientUnits="userSpaceOnUse">
      <stop stop-color="#8FA0B3"/>
      <stop offset="0.35" stop-color="#C5D0DC"/>
      <stop offset="0.6" stop-color="#9AABC0"/>
      <stop offset="1" stop-color="#6E7F94"/>
    </linearGradient>
    <linearGradient id="ti-heat" x1="18" y1="16" x2="30" y2="30" gradientUnits="userSpaceOnUse">
      <stop stop-color="#B8C8E8" stop-opacity="0.7"/>
      <stop offset="1" stop-color="#8FA6C8" stop-opacity="0"/>
    </linearGradient>
  </defs>
  <path d="M12 16L24 10L36 16V32L24 38L12 32V16Z" fill="url(#ti-sheet)" stroke="#5D6E82" stroke-width="0.8"/>
  <path d="M12 16L24 22V38L12 32V16Z" fill="#6B7C90"/>
  <path d="M24 22L36 16V32L24 38V22Z" fill="url(#ti-heat)"/>
  <path d="M24 10L36 16L24 22L12 16L24 10Z" fill="#B8C6D8"/>
  <path d="M18 24L30 24" stroke="#E8EEF8" stroke-opacity="0.45" stroke-width="1"/>
  <circle cx="30" cy="26" r="4" fill="none" stroke="#7E90A8" stroke-width="1.2"/>
  <path d="M28 26H32M30 24V28" stroke="#D8E2F0" stroke-width="0.8" stroke-linecap="round"/>
</svg>
